<?xml version="1.0" encoding="UTF-8" standalone="no"?>
<!DOCTYPE svg PUBLIC "-//W3C//DTD SVG 20010904//EN"
              "http://www.w3.org/TR/2001/REC-SVG-20010904/DTD/svg10.dtd">

<svg xmlns="http://www.w3.org/2000/svg"
     width="338.696mm" height="338.696mm"
     viewBox="0 0 1200 1200">
  <path id="Selection"
        fill="none" stroke="black" stroke-width="1"
        d="M 599.00,0.00
           C 599.00,0.00 601.00,0.00 601.00,0.00
             601.00,0.00 642.58,98.00 642.58,98.00
             670.75,165.14 699.93,231.85 730.31,298.00
             730.31,298.00 792.75,427.00 792.75,427.00
             792.75,427.00 805.25,453.00 805.25,453.00
             805.25,453.00 812.75,467.00 812.75,467.00
             812.75,467.00 868.74,577.00 868.74,577.00
             868.74,577.00 887.31,613.00 887.31,613.00
             887.31,613.00 932.26,699.00 932.26,699.00
             932.26,699.00 1001.31,829.00 1001.31,829.00
             1001.31,829.00 1040.26,902.00 1040.26,902.00
             1044.32,909.86 1054.95,927.80 1057.00,935.00
             1057.00,935.00 1039.00,925.31 1039.00,925.31
             1039.00,925.31 1011.00,911.31 1011.00,911.31
             1011.00,911.31 948.00,886.95 948.00,886.95
             948.00,886.95 915.00,876.58 915.00,876.58
             915.00,876.58 898.00,873.00 898.00,873.00
             904.35,874.81 908.28,877.78 914.00,880.74
             914.00,880.74 946.00,899.00 946.00,899.00
             984.93,922.36 1013.61,943.09 1049.00,971.40
             1049.00,971.40 1082.00,997.80 1082.00,997.80
             1086.48,1001.38 1096.28,1008.81 1099.37,1013.01
             1099.37,1013.01 1115.86,1043.00 1115.86,1043.00
             1115.86,1043.00 1154.31,1114.00 1154.31,1114.00
             1154.31,1114.00 1185.78,1172.00 1185.78,1172.00
             1189.45,1178.91 1198.12,1193.42 1200.00,1200.00
             1193.63,1198.14 1181.32,1190.45 1175.00,1186.85
             1175.00,1186.85 1130.00,1161.42 1130.00,1161.42
             1130.00,1161.42 1093.00,1141.69 1093.00,1141.69
             1093.00,1141.69 1009.00,1098.25 1009.00,1098.25
             954.98,1071.42 891.36,1044.31 834.00,1025.74
             834.00,1025.74 762.00,1005.37 762.00,1005.37
             762.00,1005.37 730.00,998.00 730.00,998.00
             735.34,968.70 738.35,944.93 738.00,915.00
             738.00,915.00 736.96,905.00 736.96,905.00
             736.96,905.00 736.96,896.00 736.96,896.00
             732.52,850.71 721.43,804.94 697.05,766.00
             676.30,732.85 644.95,702.87 604.00,700.09
             599.00,699.75 596.75,700.28 592.00,700.85
             555.21,705.24 526.04,732.60 507.19,763.00
             482.67,802.57 471.07,847.89 467.91,894.00
             467.91,894.00 467.00,906.00 467.00,906.00
             467.00,906.00 467.00,935.00 467.00,935.00
             467.18,950.23 472.06,982.12 476.00,997.00
             476.00,997.00 436.00,1005.88 436.00,1005.88
             436.00,1005.88 375.00,1023.02 375.00,1023.02
             314.07,1041.96 242.14,1072.67 185.00,1101.25
             185.00,1101.25 94.00,1148.69 94.00,1148.69
             94.00,1148.69 70.00,1161.42 70.00,1161.42
             70.00,1161.42 25.00,1186.85 25.00,1186.85
             18.68,1190.45 6.37,1198.14 0.00,1200.00
             2.00,1193.00 11.69,1177.30 15.70,1170.00
             15.70,1170.00 51.14,1106.00 51.14,1106.00
             51.14,1106.00 158.69,911.00 158.69,911.00
             222.66,792.99 287.19,675.28 348.74,556.00
             348.74,556.00 393.25,468.00 393.25,468.00
             393.25,468.00 405.74,444.00 405.74,444.00
             405.74,444.00 425.74,403.00 425.74,403.00
             425.74,403.00 437.00,380.00 437.00,380.00
             442.62,382.53 447.18,387.00 452.00,390.79
             452.00,390.79 474.00,406.67 474.00,406.67
             500.33,424.25 533.03,443.79 562.00,456.42
             562.00,456.42 587.00,467.85 587.00,467.85
             591.37,469.73 595.20,472.01 600.00,472.00
             591.20,467.69 570.71,451.22 562.00,444.42
             535.66,423.90 510.60,401.60 487.00,378.00
             487.00,378.00 463.01,354.00 463.01,354.00
             460.63,351.56 455.43,346.49 455.22,343.00
             455.09,340.98 457.52,336.06 458.42,334.00
             458.42,334.00 467.74,314.00 467.74,314.00
             467.74,314.00 497.72,247.00 497.72,247.00
             497.72,247.00 559.01,99.00 559.01,99.00
             559.01,99.00 586.20,32.00 586.20,32.00
             586.20,32.00 599.00,0.00 599.00,0.00 Z
           M 601.00,473.00
           C 601.00,473.00 600.00,473.00 600.00,473.00
             600.00,473.00 601.00,474.00 601.00,474.00
             601.00,474.00 601.00,473.00 601.00,473.00 Z
           M 603.00,474.00
           C 603.00,474.00 602.00,474.00 602.00,474.00
             602.00,474.00 603.00,475.00 603.00,475.00
             603.00,475.00 603.00,474.00 603.00,474.00 Z" />
</svg>
